<?xml version="1.0" standalone="no"?><svg xmlns="http://www.w3.org/2000/svg" viewBox="0 0 1440 320"><path fill="#555a85" fill-opacity="1" d="M0,256L8.6,240C17.1,224,34,192,51,192C68.6,192,86,224,103,229.3C120,235,137,213,154,202.7C171.4,192,189,192,206,202.7C222.9,213,240,235,257,250.7C274.3,267,291,277,309,277.3C325.7,277,343,267,360,240C377.1,213,394,171,411,144C428.6,117,446,107,463,122.7C480,139,497,181,514,202.7C531.4,224,549,224,566,218.7C582.9,213,600,203,617,213.3C634.3,224,651,256,669,245.3C685.7,235,703,181,720,154.7C737.1,128,754,128,771,106.7C788.6,85,806,43,823,74.7C840,107,857,213,874,234.7C891.4,256,909,192,926,165.3C942.9,139,960,149,977,138.7C994.3,128,1011,96,1029,96C1045.7,96,1063,128,1080,160C1097.1,192,1114,224,1131,208C1148.6,192,1166,128,1183,96C1200,64,1217,64,1234,85.3C1251.4,107,1269,149,1286,149.3C1302.9,149,1320,107,1337,117.3C1354.3,128,1371,192,1389,186.7C1405.7,181,1423,107,1431,69.3L1440,32L1440,320L1431.4,320C1422.9,320,1406,320,1389,320C1371.4,320,1354,320,1337,320C1320,320,1303,320,1286,320C1268.6,320,1251,320,1234,320C1217.1,320,1200,320,1183,320C1165.7,320,1149,320,1131,320C1114.3,320,1097,320,1080,320C1062.9,320,1046,320,1029,320C1011.4,320,994,320,977,320C960,320,943,320,926,320C908.6,320,891,320,874,320C857.1,320,840,320,823,320C805.7,320,789,320,771,320C754.3,320,737,320,720,320C702.9,320,686,320,669,320C651.4,320,634,320,617,320C600,320,583,320,566,320C548.6,320,531,320,514,320C497.1,320,480,320,463,320C445.7,320,429,320,411,320C394.3,320,377,320,360,320C342.9,320,326,320,309,320C291.4,320,274,320,257,320C240,320,223,320,206,320C188.6,320,171,320,154,320C137.1,320,120,320,103,320C85.7,320,69,320,51,320C34.3,320,17,320,9,320L0,320Z"></path></svg>